# xmcd CD database file
#
# Track frame offsets:
#	150
#	14630
#	32350
#	46750
#
# Disc length: 858 seconds
#
# Revision: 1
# Processed by: cddbd v1.5.1PL2 Copyright (c) Steve Scherf et al.
# Submitted via: CDex 1.51
#
DISCID=24035804
DTITLE=Campus - Campus
DYEAR=2000
DGENRE=Pop
TTITLE0=Come to Campus (radio edit)
TTITLE1=Come to Campus (ohh-la-la stompin mix)
TTITLE2=Now or never (radio edit)
TTITLE3=Now or never (ohh-la-la stompin mix)
EXTD=YEAR: 2000
EXTT0=
EXTT1=
EXTT2=
EXTT3=
PLAYORDER=
